<?xml version="1.0" standalone="no"?>
<!DOCTYPE svg PUBLIC "-//W3C//DTD SVG 20010904//EN"
 "http://www.w3.org/TR/2001/REC-SVG-20010904/DTD/svg10.dtd">
<svg version="1.0" xmlns="http://www.w3.org/2000/svg"
 width="500.000000pt" height="500.000000pt" viewBox="0 0 500.000000 500.000000"
 preserveAspectRatio="xMidYMid meet">
<metadata>
Created by potrace 1.14, written by Peter Selinger 2001-2017
</metadata>
<g transform="translate(0.000000,500.000000) scale(0.100000,-0.100000)"
fill="#000000" stroke="none">
<path d="M2440 4164 c-253 -55 -498 -205 -674 -413 -183 -217 -266 -451 -252
-711 17 -341 189 -694 501 -1030 73 -78 131 -156 175 -233 28 -50 31 -62 21
-83 -7 -17 -11 -112 -11 -284 0 -222 2 -261 16 -274 11 -12 36 -16 95 -16 69
0 79 -2 79 -18 0 -24 37 -91 68 -125 14 -15 48 -38 76 -52 64 -32 169 -34 233
-6 57 26 120 94 140 152 l18 49 72 0 c39 0 78 3 87 6 14 5 16 40 16 289 0 209
-3 284 -12 287 -17 6 75 156 142 234 30 35 89 103 131 151 196 228 336 479
398 714 102 394 -3 749 -310 1045 -168 162 -376 274 -590 319 -90 19 -330 18
-419 -1z m402 -78 c207 -40 402 -148 569 -315 209 -208 302 -419 302 -681 1
-144 -11 -214 -60 -359 -77 -231 -207 -438 -427 -680 -93 -103 -158 -194 -202
-284 l-28 -57 -348 0 c-330 0 -348 1 -348 18 0 10 -23 57 -51 103 -48 82 -81
123 -247 311 -201 228 -354 528 -398 782 -21 117 -14 290 16 396 28 100 97
240 159 321 72 95 226 238 315 294 105 65 244 124 346 145 105 23 300 26 402
6z"/>
</g>
</svg>
